<svg version="1" xmlns="http://www.w3.org/2000/svg" width="93.333" height="93.333" viewBox="0 0 70.000000 70.000000"><path d="M35.5 15.4c-.5.2-2.3.7-3.9 1.1-1.6.3-5.7 3.3-9.1 6.6-4 3.8-7.8 6.5-10.8 7.5C5 32.9 2.8 36 3.2 42.9c.3 5.3.5 5.6 3.1 5.9 1.5.2 3.8 1.4 5.2 2.8 3.7 3.7 8.7 2.7 10.5-2.2.9-2.4 1.1-2.4 13.4-2.4 12.2 0 12.4 0 13 2.4.3 1.4 1.8 2.9 3.6 3.6 2.5 1 3.4 1 5.4-.4 1.4-.8 2.7-2.5 3.1-3.6.3-1.1 1.5-2 2.5-2s2.2-.5 2.5-1.1c1-1.5-1.5-14-3.3-16.7-.8-1.3-1.7-4.9-1.8-8-.2-3.1-.3-5.9-.4-6.1 0-.3-.6.3-1.3 1.3-1.1 1.5-1.9 1.6-5.3.7C49 16 37 14.8 35.5 15.4z"/></svg>